<svg xmlns="http://www.w3.org/2000/svg" width="512" height="360" viewBox="0 0 512 360">
  <g fill="none" stroke-linecap="round" stroke-linejoin="round">
    <rect x="30" y="42" width="190" height="276" rx="24" fill="#fff" stroke="#7145d3" stroke-width="8"/>
    <rect x="292" y="42" width="190" height="276" rx="24" fill="#fff" stroke="#7145d3" stroke-width="8"/>

    <g fill="#e9e4ff" stroke="#7145d3" stroke-width="8">
      <circle cx="125" cy="126" r="45"/>
      <path d="M66 258c7-54 29-82 59-82s52 28 59 82Z"/>
      <circle cx="387" cy="126" r="45"/>
      <path d="M328 258c7-54 29-82 59-82s52 28 59 82Z"/>
    </g>

    <path d="M60 153h130M322 153h130" stroke="#25aaa0" stroke-width="7" stroke-dasharray="16 11"/>
    <path d="M235 180h42" stroke="#7145d3" stroke-width="8"/>
    <path d="m263 164 16 16-16 16" stroke="#7145d3" stroke-width="8"/>

    <g fill="#25aaa0" stroke="none">
      <rect x="454" y="76" width="22" height="22" rx="4"/>
      <rect x="470" y="108" width="16" height="16" rx="3"/>
      <rect x="449" y="138" width="27" height="27" rx="4"/>
      <rect x="469" y="178" width="18" height="18" rx="3"/>
      <rect x="452" y="210" width="24" height="24" rx="4"/>
    </g>
  </g>
</svg>
